<svg width="213" height="152" viewBox="0 0 213 152" fill="none" xmlns="http://www.w3.org/2000/svg">
<path d="M212.408 111.16V144.166H0V111.16" fill="white"/>
<path d="M184.824 135.265V134.847C185.038 134.116 185.178 133.366 185.242 132.607H185.947L185.979 133.535C186.353 133.909 186.799 134.203 187.289 134.4C187.823 134.603 188.387 134.711 188.957 134.722C189.521 134.763 190.082 134.617 190.555 134.307C190.725 134.181 190.863 134.017 190.958 133.828C191.052 133.639 191.101 133.43 191.1 133.218C191.105 133.054 191.072 132.892 191.006 132.742C190.94 132.592 190.84 132.459 190.716 132.352C190.356 132.072 189.921 131.904 189.467 131.869L188.473 131.676C187.806 131.595 187.163 131.376 186.585 131.033C186.338 130.846 186.14 130.602 186.007 130.322C185.873 130.042 185.809 129.735 185.818 129.425C185.81 129.064 185.894 128.706 186.063 128.387C186.232 128.067 186.48 127.797 186.783 127.6C188.009 126.602 189.526 126.03 191.105 125.968C191.558 125.974 192.009 126.028 192.451 126.129C192.92 126.227 193.38 126.366 193.824 126.545C193.618 127.325 193.457 128.116 193.342 128.914H192.671L192.543 127.949C192.153 127.635 191.708 127.396 191.231 127.243C190.805 127.114 190.363 127.049 189.918 127.05C189.44 127.025 188.966 127.161 188.573 127.434C188.413 127.545 188.282 127.694 188.193 127.867C188.103 128.04 188.058 128.232 188.06 128.427C188.051 128.615 188.091 128.803 188.175 128.972C188.259 129.141 188.386 129.285 188.542 129.391C189.116 129.703 189.749 129.889 190.401 129.936L191.044 130.031C191.711 130.093 192.346 130.349 192.869 130.768C193.059 130.957 193.208 131.183 193.307 131.432C193.406 131.681 193.453 131.947 193.445 132.215C193.445 132.512 193.382 132.805 193.261 133.075C193.139 133.346 192.962 133.587 192.74 133.784C192.151 134.33 191.483 134.783 190.758 135.129C189.87 135.563 188.893 135.783 187.905 135.772C187.445 135.775 186.986 135.744 186.53 135.679C186.175 135.613 185.601 135.455 184.832 135.262L184.824 135.265ZM184.824 126.743L184.953 126.389L184.858 126.296H184.826V126.743H184.824ZM184.824 126.296V126.743L184.794 126.872C184.729 127.083 184.675 127.298 184.633 127.515C183.961 127.451 183.289 127.418 182.649 127.418H181.401C181.145 128.187 180.824 129.436 180.377 131.133C180.154 131.942 179.993 132.766 179.894 133.599C179.89 133.676 179.903 133.753 179.93 133.824C179.958 133.896 180.001 133.96 180.055 134.014C180.172 134.108 180.32 134.154 180.47 134.143C180.761 134.133 181.045 134.057 181.303 133.921C181.922 133.621 182.514 133.267 183.072 132.863L183.356 133.407L181.629 134.495C180.984 134.888 180.31 135.23 179.613 135.519C179.243 135.662 178.854 135.748 178.458 135.775C178.103 135.788 177.757 135.662 177.493 135.425C177.373 135.303 177.28 135.157 177.219 134.997C177.159 134.837 177.132 134.666 177.141 134.495C177.146 134.247 177.179 134.001 177.239 133.76C177.305 133.471 177.626 132.254 178.204 130.11C178.588 128.702 178.812 127.805 178.876 127.42H176.339L176.5 126.909C177.237 126.749 178.134 126.525 179.19 126.236C179.418 125.335 179.558 124.413 179.608 123.484C180.439 123.291 181.401 123.035 182.52 122.68L182.747 122.905C182.361 124.058 182.007 125.209 181.689 126.392H182.84C183.503 126.402 184.165 126.371 184.824 126.299V126.296ZM184.824 134.841C184.794 134.971 184.762 135.097 184.729 135.225C184.747 135.223 184.764 135.225 184.781 135.23C184.797 135.236 184.812 135.245 184.824 135.257V134.839V134.841ZM153.327 127.19V126.064H153.743C154.637 126.064 155.794 126.034 157.199 126L155.376 117.455L153.329 120.399V117.883L155.665 114.521H157.329L161.108 131.808C161.249 132.602 161.452 133.383 161.714 134.145C161.818 134.291 161.963 134.403 162.131 134.466C162.85 134.602 163.577 134.687 164.308 134.722V135.618C163.061 135.555 161.621 135.524 159.989 135.523C158.381 135.523 156.94 135.554 155.667 135.618V134.722L156.848 134.691C157.361 134.727 157.875 134.651 158.355 134.468C158.467 134.403 158.559 134.309 158.621 134.196C158.683 134.082 158.713 133.954 158.707 133.825C158.662 133.254 158.576 132.687 158.452 132.128L157.427 127.196L153.327 127.19ZM167.41 135.769L167.154 135.547C167.571 134.394 167.958 133.178 168.307 131.929C168.498 131.257 168.659 130.52 168.818 129.655C168.903 129.222 168.956 128.784 168.979 128.343C168.996 128.217 168.962 128.09 168.886 127.989C168.871 127.957 168.849 127.928 168.821 127.906C168.793 127.884 168.76 127.869 168.725 127.862C168.533 127.888 168.348 127.954 168.182 128.055C167.747 128.248 167.338 128.495 166.966 128.79L166.678 128.246C167.943 127.195 169.415 126.42 170.999 125.973C171.088 125.971 171.177 125.987 171.26 126.02C171.343 126.054 171.418 126.104 171.481 126.167C171.548 126.241 171.599 126.327 171.632 126.42C171.665 126.513 171.679 126.612 171.674 126.711C171.486 127.841 171.207 128.955 170.841 130.041L170.68 130.552H170.841C171.322 129.558 171.901 128.614 172.57 127.735C172.998 127.143 173.529 126.633 174.139 126.23C174.489 126.058 174.875 125.97 175.265 125.974C175.483 125.972 175.7 126.004 175.908 126.069C175.59 126.942 175.418 127.861 175.397 128.79L175.109 128.919C174.774 128.647 174.355 128.5 173.924 128.504C173.529 128.526 173.146 128.646 172.81 128.852C172.473 129.059 172.193 129.346 171.994 129.687C170.882 131.403 170.181 133.353 169.946 135.384C169.095 135.46 168.251 135.587 167.416 135.767L167.41 135.769ZM153.327 117.875V120.404L149.453 126.005C151.085 126.039 152.367 126.069 153.327 126.069V127.195H148.651L147.244 129.308C145.837 131.39 145.035 132.67 144.779 133.181C144.63 133.428 144.532 133.701 144.489 133.985C144.489 134.178 144.618 134.339 144.874 134.436C145.76 134.609 146.659 134.705 147.562 134.722V135.618C145.74 135.555 144.331 135.524 143.336 135.523C142.248 135.523 141.064 135.554 139.783 135.618V134.722C140.357 134.736 140.93 134.661 141.481 134.498C142.128 133.909 142.688 133.23 143.143 132.482L153.325 117.885L153.327 117.875ZM130.214 135.392V134.368C130.581 134.303 130.945 134.218 131.304 134.112C132.045 133.854 132.761 133.531 133.446 133.148L133.703 133.661L131.751 134.715C131.253 134.971 130.739 135.195 130.214 135.388V135.392ZM130.214 131.136V130.4C130.374 130.335 130.501 130.271 130.628 130.207C131.107 129.959 131.506 129.582 131.781 129.12C132.069 128.764 132.237 128.327 132.264 127.87C132.271 127.74 132.246 127.61 132.19 127.493C132.133 127.375 132.048 127.274 131.942 127.198C131.712 127.023 131.428 126.932 131.138 126.942C130.816 126.952 130.5 127.028 130.209 127.166V126.397C130.861 126.134 131.556 125.993 132.259 125.981C132.836 125.954 133.407 126.111 133.89 126.429C134.075 126.567 134.227 126.745 134.333 126.95C134.438 127.155 134.495 127.382 134.499 127.613C134.481 128.209 134.267 128.783 133.89 129.245C133.309 129.87 132.583 130.343 131.777 130.622C131.264 130.822 130.741 130.993 130.209 131.134L130.214 131.136ZM130.214 126.397V127.166C130.151 127.198 130.117 127.232 130.053 127.262C129.639 127.531 129.305 127.908 129.088 128.351C128.681 129.199 128.369 130.09 128.159 131.007C128.852 130.844 129.536 130.641 130.207 130.4V131.136C129.533 131.297 128.829 131.424 128.062 131.554C127.905 131.974 127.818 132.417 127.806 132.865C127.792 133.086 127.827 133.308 127.911 133.513C127.994 133.718 128.124 133.902 128.289 134.05C128.665 134.332 129.132 134.469 129.601 134.434C129.805 134.427 130.008 134.405 130.209 134.368V135.392C130.016 135.458 129.855 135.489 129.697 135.553C129.194 135.681 128.679 135.755 128.16 135.775C127.383 135.817 126.614 135.59 125.985 135.132C125.736 134.906 125.541 134.628 125.414 134.318C125.286 134.007 125.229 133.672 125.247 133.337C125.282 132.239 125.51 131.156 125.919 130.136C126.19 129.366 126.629 128.666 127.205 128.087C128.059 127.414 129.008 126.872 130.022 126.479L130.215 126.383L130.214 126.397ZM86.1964 141.059V138.726C86.2889 138.958 86.4474 139.158 86.6523 139.301C86.8573 139.444 87.0996 139.523 87.3494 139.53C87.5385 139.533 87.7254 139.489 87.8929 139.401C88.0781 139.307 88.233 139.163 88.3399 138.985C88.5617 138.476 88.7434 137.952 88.8834 137.415L89.4912 134.952L91.2857 127.394H89.0796L89.2066 126.912C89.4623 126.817 89.8771 126.719 90.3563 126.59C90.8709 126.462 91.2873 126.335 91.5752 126.238L91.736 125.695C91.8657 125.141 92.1046 124.619 92.4387 124.159C93.0316 123.537 93.6979 122.989 94.4229 122.527C95.1915 121.977 96.0054 121.492 96.8558 121.08C97.2342 120.942 97.6353 120.878 98.0377 120.89C98.3873 120.867 98.7376 120.922 99.0636 121.051C98.7421 121.856 98.5055 122.693 98.3577 123.548L98.0361 123.611C97.4299 122.807 96.8542 122.395 96.2769 122.395C95.9797 122.405 95.6953 122.519 95.473 122.717C95.1634 123.086 94.9546 123.529 94.8667 124.003C94.513 125.22 94.2911 126.019 94.2235 126.404H94.513C94.8008 126.404 95.3797 126.372 96.211 126.341C96.6259 126.31 96.9459 126.277 97.1758 126.245L97.2723 126.405C97.1206 126.727 96.9917 127.059 96.8864 127.399H93.9759L93.1719 130.343C92.5997 132.701 91.795 134.995 90.7696 137.193C90.1048 138.458 89.1229 139.529 87.9202 140.3C87.4144 140.692 86.8213 140.955 86.1916 141.069L86.1964 141.059ZM86.1964 132.897C86.4197 132.533 86.6231 132.157 86.8059 131.771C87.1781 130.923 87.3729 130.009 87.3783 129.083C87.3945 128.48 87.2514 127.884 86.9635 127.354C86.7653 127.054 86.5027 126.803 86.1948 126.618V132.889L86.1964 132.897ZM110.046 132.865L110.302 133.408L108.573 134.497C107.946 134.901 107.281 135.244 106.587 135.521C106.22 135.667 105.831 135.753 105.436 135.777C105.266 135.783 105.096 135.755 104.937 135.694C104.778 135.634 104.632 135.543 104.508 135.426C104.382 135.309 104.284 135.164 104.223 135.003C104.162 134.842 104.139 134.668 104.156 134.497C104.145 134.248 104.177 134 104.249 133.762C104.315 133.472 104.636 132.256 105.214 130.112C105.566 128.703 105.789 127.806 105.885 127.422H103.322L103.482 126.91C104.219 126.749 105.114 126.526 106.203 126.238C106.413 125.333 106.552 124.412 106.62 123.485C107.424 123.292 108.35 123.037 109.467 122.681L109.725 122.906C109.31 124.059 108.956 125.211 108.634 126.394H109.823C110.496 126.403 111.168 126.372 111.837 126.301L111.899 126.394L111.738 126.876C111.667 127.084 111.624 127.301 111.609 127.52C110.937 127.455 110.264 127.423 109.591 127.423H108.374C108.118 128.192 107.768 129.441 107.382 131.138C107.158 131.948 106.987 132.772 106.87 133.604C106.867 133.681 106.88 133.757 106.907 133.829C106.935 133.9 106.977 133.965 107.031 134.019C107.152 134.109 107.299 134.154 107.449 134.148C107.73 134.133 108.005 134.058 108.253 133.926C108.881 133.626 109.482 133.272 110.048 132.868L110.046 132.865ZM112.22 135.777L111.966 135.616C112.452 134.251 112.868 132.863 113.212 131.456L113.564 130.078C113.854 128.895 114.333 126.909 114.944 124.128C115.033 123.738 115.097 123.343 115.135 122.945C115.147 122.856 115.131 122.767 115.091 122.687C115.051 122.607 114.988 122.541 114.91 122.498C114.555 122.414 114.188 122.381 113.823 122.401H113.214L113.31 121.795C114.105 121.75 114.897 121.653 115.679 121.506C116.542 121.313 117.343 121.123 118.048 120.9L118.271 121.089C117.886 122.307 117.501 123.652 117.117 125.124L115.742 130.469C116.723 129.118 117.963 127.976 119.39 127.11C120.261 126.491 121.274 126.104 122.334 125.984C122.59 125.968 122.842 126.048 123.04 126.209C123.124 126.293 123.187 126.394 123.226 126.505C123.264 126.617 123.277 126.735 123.264 126.852C123.26 127.143 123.228 127.433 123.169 127.717C123.138 127.878 122.913 128.549 122.526 129.735L122.079 131.08C121.774 131.915 121.528 132.77 121.342 133.64C121.352 133.749 121.398 133.852 121.474 133.931C121.515 133.974 121.565 134.008 121.621 134.03C121.677 134.052 121.736 134.061 121.796 134.058C121.952 134.048 122.105 134.005 122.243 133.931C122.676 133.727 123.094 133.491 123.492 133.225L123.748 133.768C122.502 134.718 121.075 135.404 119.554 135.783C119.431 135.791 119.307 135.773 119.191 135.729C119.075 135.684 118.97 135.616 118.884 135.527C118.792 135.43 118.722 135.314 118.678 135.187C118.633 135.061 118.616 134.926 118.626 134.793C118.639 134.401 118.704 134.012 118.821 133.638L119.625 131.173L119.91 130.277C120.04 129.895 120.165 129.285 120.358 128.484C120.388 128.391 120.41 128.294 120.423 128.197C120.422 128.147 120.411 128.098 120.388 128.054C120.366 128.009 120.334 127.971 120.294 127.941C120.253 127.897 120.203 127.862 120.148 127.84C120.092 127.817 120.032 127.807 119.972 127.811C119.415 127.88 118.891 128.114 118.467 128.483C117.472 129.245 116.644 130.204 116.036 131.3C115.314 132.566 114.835 133.955 114.624 135.397C113.817 135.479 113.015 135.607 112.222 135.78L112.22 135.777ZM86.1964 126.622V132.894C85.9935 133.216 85.7455 133.507 85.46 133.759C84.6457 134.419 83.7266 134.938 82.7409 135.294C82.4893 135.393 82.2327 135.478 81.9722 135.55V134.746C82.256 134.682 82.5199 134.549 82.7409 134.36C83.3788 133.79 83.8342 133.044 84.0498 132.217C84.4304 131.192 84.6259 130.108 84.627 129.015C84.6495 128.721 84.6129 128.425 84.5196 128.144C84.4263 127.864 84.2781 127.605 84.0835 127.383C83.7978 127.137 83.4545 126.966 83.0855 126.888C82.7164 126.809 82.3335 126.825 81.9722 126.934V126.167C82.4747 126.039 82.991 125.974 83.5095 125.973C84.2527 125.95 84.9927 126.08 85.6835 126.355C85.8635 126.422 86.0356 126.508 86.1964 126.613V126.622ZM86.1964 138.723V141.059C86.0911 141.083 85.9829 141.094 85.8748 141.09C85.5765 141.081 85.2824 141.016 85.0081 140.898C85.3428 140.211 85.612 139.493 85.8121 138.755L86.1611 138.689C86.1611 138.693 86.1619 138.697 86.1637 138.701C86.1654 138.705 86.1679 138.709 86.1711 138.712C86.1742 138.715 86.1779 138.717 86.182 138.719C86.1861 138.721 86.1905 138.721 86.1948 138.721L86.1964 138.723ZM81.9722 126.18V126.947C81.6702 127.015 81.3859 127.146 81.1377 127.332C80.5844 127.828 80.1854 128.472 79.988 129.189C79.5806 130.276 79.3525 131.423 79.3126 132.583C79.2507 133.205 79.4348 133.826 79.8256 134.313C80.0466 134.501 80.3025 134.642 80.5785 134.73C80.8544 134.818 81.1451 134.85 81.4336 134.825C81.6167 134.819 81.7991 134.798 81.9787 134.762V135.566C81.3908 135.705 80.7897 135.779 80.1858 135.788C79.2058 135.866 78.23 135.594 77.4313 135.021C77.1275 134.736 76.8916 134.386 76.7411 133.997C76.5905 133.609 76.5291 133.192 76.5613 132.776C76.5598 131.449 76.9129 130.145 77.584 128.999C78.1738 128.101 79.0078 127.389 79.988 126.949C80.6143 126.61 81.281 126.353 81.9722 126.182V126.18ZM56.9712 139.848V139.015L58.346 138.279L58.7014 138.409C58.6762 138.514 58.6648 138.622 58.6676 138.731C58.655 138.922 58.6859 139.114 58.758 139.291C58.8302 139.469 58.9416 139.628 59.0841 139.757C59.2267 139.898 59.3972 140.007 59.5846 140.079C59.772 140.151 59.9723 140.183 60.1727 140.173C60.578 140.165 60.9747 140.054 61.3256 139.851C61.7502 139.591 62.1025 139.227 62.3499 138.795C62.7875 138.069 63.1413 137.296 63.4048 136.491C63.855 135.113 64.302 133.706 64.7523 132.233C64.0815 133.032 63.3527 133.782 62.5718 134.474C62.0541 134.939 61.4719 135.327 60.8432 135.626C60.5508 135.762 60.2378 135.848 59.917 135.881C59.7569 135.877 59.6001 135.834 59.4601 135.757C59.3201 135.679 59.201 135.568 59.113 135.434C58.8511 135.037 58.7268 134.565 58.7593 134.09C58.7593 133.707 58.8252 133.226 58.8879 132.619L59.113 131.081C59.3381 129.576 59.4346 128.713 59.4346 128.488C59.4511 128.249 59.4183 128.009 59.3381 127.783C59.3036 127.731 59.2556 127.688 59.1991 127.66C59.1426 127.631 59.0796 127.619 59.0165 127.623C58.8167 127.642 58.6271 127.721 58.4714 127.848C57.976 128.099 57.5141 128.411 57.0966 128.777L56.968 128.521V128.103C57.1899 127.977 57.5742 127.721 58.1209 127.335C58.7601 126.914 59.4348 126.55 60.1373 126.246C60.4399 126.101 60.7673 126.014 61.1021 125.99C61.2372 125.982 61.3724 126.006 61.4956 126.062C61.6188 126.118 61.7261 126.204 61.808 126.312C61.9934 126.584 62.0729 126.914 62.0315 127.24C62.0359 127.496 62.0252 127.752 61.9994 128.007L61.4896 131.498C61.4009 132.102 61.3579 132.712 61.361 133.323C61.33 133.546 61.3753 133.772 61.4896 133.966C61.5194 134.016 61.5616 134.057 61.6121 134.085C61.6626 134.113 61.7196 134.128 61.7775 134.127C62.0991 134.127 62.5461 133.841 63.1523 133.199C64.1606 132.152 64.9452 130.911 65.4582 129.551C65.8735 128.588 66.1637 127.577 66.3217 126.54C66.7703 126.476 67.6322 126.319 68.9781 126.058L69.2337 126.219C68.8789 126.997 68.5796 127.799 68.3381 128.62L67.2125 131.95C66.7429 133.509 66.1514 135.029 65.4437 136.495C64.7389 137.85 63.7172 139.014 62.4657 139.888C61.5245 140.582 60.3998 140.983 59.232 141.041C58.7935 141.041 58.3583 140.965 57.9456 140.816C57.6171 140.695 57.3288 140.485 57.1127 140.21C57.0404 140.102 56.9861 139.983 56.9519 139.858L56.9712 139.848ZM56.9712 126.946C56.9712 126.915 56.9712 126.915 57.0017 126.883L57.1625 126.401L57.0677 126.307C57.0506 126.305 57.0332 126.307 57.0168 126.312C57.0004 126.317 56.9854 126.326 56.9728 126.338V126.944L56.9712 126.946ZM38.4342 132.228C38.2734 132.58 38.148 132.932 38.0194 133.284C36.7258 134.174 35.3003 134.855 33.7952 135.302C32.2193 135.728 30.592 135.932 28.9599 135.91C26.1566 136.081 23.385 135.24 21.1483 133.542C20.2086 132.717 19.4695 131.688 18.9871 130.535C18.5048 129.381 18.292 128.133 18.3649 126.885C18.3157 125.214 18.6508 123.554 19.3445 122.034C20.0381 120.513 21.0717 119.172 22.3656 118.115C25.2722 115.67 28.9723 114.371 32.7693 114.464C33.9934 114.457 35.2155 114.565 36.4194 114.786C37.589 114.968 38.7372 115.268 39.8461 115.682C39.4185 117.07 39.1177 118.495 38.9472 119.938H37.9229C37.8907 119.489 37.8907 119.107 37.8907 118.812L37.9229 117.526C36.9418 116.977 35.8997 116.545 34.8179 116.24C33.7236 116.003 32.6054 115.895 31.4861 115.918C29.6736 115.843 27.8706 116.217 26.2376 117.007C24.7638 117.819 23.5695 119.058 22.811 120.56C21.8651 122.308 21.3907 124.271 21.4345 126.257C21.3671 127.359 21.5412 128.463 21.9448 129.491C22.3484 130.518 22.9716 131.445 23.771 132.207C25.5474 133.672 27.8104 134.415 30.1097 134.288C31.3421 134.293 32.5695 134.131 33.7582 133.805C35.2453 133.384 36.6753 132.781 38.0162 132.012L38.431 132.204L38.4342 132.228ZM56.9712 126.338V126.944C56.9127 127.133 56.8697 127.326 56.8425 127.521C56.1704 127.457 55.4966 127.425 54.8245 127.425H53.6073C53.3516 128.193 53.001 129.443 52.5846 131.139C52.3615 131.948 52.2002 132.773 52.1022 133.606C52.0914 133.683 52.1005 133.762 52.1286 133.834C52.1568 133.907 52.203 133.971 52.263 134.021C52.3146 134.067 52.3752 134.102 52.441 134.125C52.5069 134.147 52.5765 134.155 52.6457 134.149C52.9463 134.136 53.241 134.061 53.5108 133.928C54.1236 133.621 54.7118 133.267 55.2699 132.869L55.561 133.413L53.8308 134.502C53.1794 134.902 52.4945 135.244 51.7838 135.526C51.4157 135.674 51.0256 135.761 50.6293 135.782C50.4591 135.787 50.2895 135.759 50.1302 135.699C49.9709 135.639 49.8252 135.548 49.7014 135.431C49.5752 135.314 49.4777 135.169 49.4164 135.007C49.355 134.846 49.3315 134.673 49.3477 134.502C49.3523 134.254 49.3846 134.007 49.4442 133.767C49.5063 133.477 49.8279 132.261 50.409 130.117C50.7595 128.708 50.9862 127.811 51.0779 127.426H48.518L48.6788 126.915C49.412 126.754 50.3109 126.531 51.3979 126.243C51.6094 125.338 51.7492 124.417 51.8159 123.49C52.6473 123.297 53.6089 123.041 54.6975 122.686L54.9531 122.911C54.5688 124.064 54.1845 125.215 53.8629 126.399H55.048C55.852 126.399 56.4952 126.367 56.9776 126.336L56.9712 126.338ZM56.9712 128.097C56.8731 128.161 56.8425 128.193 56.8104 128.193L56.9712 128.515V128.097ZM56.9712 139.014V139.847C56.9302 139.647 56.9092 139.443 56.9085 139.239V139.078L56.9712 139.014ZM44.1973 123.072C44.1879 122.856 44.2263 122.641 44.3097 122.442C44.3931 122.242 44.5194 122.064 44.6797 121.919C44.8307 121.77 45.0106 121.653 45.2083 121.576C45.406 121.499 45.6173 121.463 45.8294 121.47C46.1692 121.453 46.5026 121.568 46.7588 121.792C46.8721 121.885 46.9628 122.002 47.0241 122.135C47.0854 122.268 47.1156 122.413 47.1126 122.559C47.1103 122.77 47.0661 122.978 46.9825 123.171C46.8989 123.365 46.7776 123.54 46.6256 123.686C46.4737 123.832 46.2942 123.946 46.0976 124.022C45.9009 124.098 45.6912 124.134 45.4805 124.128C45.1466 124.146 44.8172 124.045 44.551 123.842C44.4389 123.748 44.3491 123.631 44.2882 123.498C44.2273 123.365 44.1968 123.22 44.1989 123.074L44.1973 123.072ZM40.5487 128.962L40.2931 128.449C42.1198 127.296 43.3016 126.626 43.784 126.401C44.2424 126.168 44.7415 126.027 45.2537 125.984C45.4421 125.985 45.6239 126.054 45.7651 126.179C45.8954 126.342 45.9643 126.546 45.9596 126.754C45.8312 127.731 45.5839 128.687 45.2232 129.604L44.8389 130.66C44.4304 131.655 44.151 132.699 44.0075 133.765C44.0075 133.987 44.1008 134.087 44.3291 134.087C45.0147 133.858 45.6697 133.547 46.2796 133.159L46.5691 133.672L44.2005 135.016C43.762 135.292 43.2889 135.508 42.7935 135.659C42.5897 135.744 42.371 135.787 42.1503 135.786C42.0268 135.791 41.9036 135.771 41.7881 135.727C41.6725 135.683 41.5671 135.616 41.4782 135.531C41.305 135.3 41.2252 135.013 41.2547 134.727C41.2881 134.085 41.4066 133.45 41.6068 132.839L42.3754 130.503C42.6588 129.771 42.8526 129.007 42.9527 128.229C42.9527 128.068 42.8868 127.973 42.6954 127.973C42.5069 127.998 42.3235 128.052 42.1519 128.134C41.5966 128.372 41.0592 128.65 40.5439 128.965" fill="black" fill-opacity="0.3"/>
<path d="M1.78166 148.639H212.408V152H0V148.639" fill="white"/>
<path d="M32.3881 106.423C32.3428 96.6998 34.2186 87.0636 37.9081 78.0676C41.5975 69.0716 47.0277 60.8931 53.887 54.0018C60.7462 47.1105 68.8993 41.6421 77.8779 37.9107C86.8566 34.1794 96.4839 32.2585 106.207 32.2585C115.93 32.2585 125.558 34.1794 134.536 37.9107C143.515 41.6421 151.668 47.1105 158.527 54.0018C165.386 60.8931 170.817 69.0716 174.506 78.0676C178.195 87.0636 180.071 96.6998 180.026 106.423H32.3881Z" fill="black" fill-opacity="0.2"/>
<path d="M24.0604 83.1826L18.8409 81.2627V88.7543L27.6736 91.9542L30.0743 85.3615L26.0109 83.8885C26.4435 82.6581 26.7748 81.3942 27.0014 80.1098C27.7379 75.5977 25.6909 71.6276 21.9137 70.2512C20.9349 69.8757 19.8877 69.7113 18.8409 69.7688V77.0674C19.3233 77.2282 19.8314 77.4196 20.4376 77.6109C21.694 77.9285 22.8299 78.6072 23.705 79.563C24.1005 80.0711 24.3435 80.681 24.4058 81.3218C24.4682 81.9626 24.3473 82.6079 24.0572 83.1826H24.0604ZM18.8409 81.2627L13.3013 79.2447L13.364 79.0517C13.9091 77.5788 14.4526 76.9404 15.5091 76.6831C16.6338 76.4968 17.7881 76.63 18.8409 77.0674V69.7688C17.3784 69.9075 16.004 70.5299 14.935 71.5375C13.6856 72.6631 13.2064 73.4575 12.1178 76.4998L8.94849 85.1733L18.8409 88.7527V81.2627Z" fill="white"/>
<path d="M32.6423 54.5927C32.9639 54.8162 33.2855 55.0397 33.5717 55.2359L36.2281 57.1237C40.1661 59.9425 40.5166 60.4844 39.428 62.02C38.624 63.2051 37.381 63.1729 35.6187 61.9251L33.5733 60.5503L32.6439 59.8765V67.1447C34.2908 67.2722 35.9425 66.9676 37.4356 66.2608C38.9286 65.554 40.2113 64.4697 41.1566 63.115C41.8966 62.0258 42.409 60.7985 42.6631 59.5065C42.9173 58.2145 42.908 56.8845 42.6358 55.5962C42.3636 54.3079 41.834 53.0878 41.0789 52.0091C40.3238 50.9303 39.3586 50.0152 38.2413 49.3185C36.5924 48.1459 34.6585 47.4384 32.6423 47.2699V54.5927ZM28.8619 57.2491L27.0674 56.0013C25.2793 54.6875 24.8934 53.6633 25.7569 52.4155C26.7795 50.9683 27.7733 51.1998 31.425 53.7597C31.8399 54.0476 32.2564 54.3354 32.6423 54.5911V47.2667C30.9946 47.1177 29.3369 47.4097 27.8392 48.1127C26.3416 48.8157 25.0579 49.9045 24.1199 51.2673C23.3708 52.3502 22.8477 53.5731 22.5819 54.8627C22.3161 56.1524 22.313 57.4824 22.5728 58.7732C22.8326 60.0641 23.35 61.2894 24.0941 62.3757C24.8382 63.4621 25.7936 64.3873 26.9034 65.0961C28.5772 66.3164 30.5677 67.0277 32.6359 67.1447V59.8765L31.1292 58.8201L28.8555 57.2507" fill="white"/>
<path d="M53.4465 40.51L50.7273 37.0222V48.4181L51.7838 49.7945L57.3217 45.4738L54.7602 42.1759L54.8888 42.0472L55.0818 41.8559L55.3374 41.6307L55.3986 41.5664C56.2315 41.9202 56.5241 42.0488 57.066 42.2386C57.9976 42.689 59.0363 42.8708 60.0654 42.7634C61.0945 42.656 62.0733 42.2638 62.8918 41.6307C63.8541 40.9082 64.5628 39.8995 64.9163 38.7492C65.0249 38.1454 64.9916 37.5245 64.8192 36.9357C64.6467 36.3469 64.3398 35.8062 63.9225 35.3564C63.5266 36.3632 62.8708 37.2471 62.0219 37.9179C61.3815 38.4014 60.6411 38.7357 59.8548 38.8962C59.0686 39.0568 58.2564 39.0395 57.4777 38.8457C60.3592 34.4607 60.6776 31.1643 58.4682 28.3134C57.8799 27.535 57.1208 26.902 56.2493 26.4632C55.3778 26.0244 54.4173 25.7915 53.4416 25.7824C52.5197 25.752 51.5996 25.8826 50.7225 26.1683V31.0662C51.4915 31.7862 52.1884 32.5795 52.8033 33.4348C54.6605 35.7728 55.1702 36.7955 55.1075 37.8841C55.045 38.3623 54.8883 38.8234 54.6465 39.2407C54.4048 39.658 54.0827 40.0233 53.6989 40.3154C53.604 40.3797 53.5381 40.4441 53.4432 40.5084L53.4465 40.51ZM50.7273 37.0222L46.3423 31.3943L46.5337 31.2335C46.8855 30.922 47.2965 30.6848 47.7422 30.5362C48.1879 30.3875 48.6591 30.3304 49.1274 30.3684C49.7242 30.4292 50.2867 30.6761 50.7354 31.0743V26.1699C49.0934 26.8121 47.5684 27.7205 46.2217 28.8585L39.5309 34.1086L50.7354 48.4197V37.0222" fill="white"/>
<path d="M82.0993 32.2189L76.2398 15.2529L81.4593 13.46L80.8161 11.6028L63.7553 17.4623L64.3985 19.3195L69.6132 17.5282L75.4422 34.4926L82.0993 32.2205" fill="white"/>
<path d="M128.038 30.5869L130.471 10.8343L123.492 9.97079L118.112 16.5636L112.286 8.59113L109.503 8.26953L107.099 28.0237L109.056 28.2488L110.302 17.9722L114.782 23.9587L123.042 13.875L121.09 29.7523L128.036 30.5853" fill="white"/>
<path d="M145.769 23.0003L146.188 22.1336C147.244 20.1493 148.206 19.6379 149.582 20.3406C151.15 21.1446 151.053 22.1657 149.037 26.1294C148.59 26.9929 148.206 27.7615 147.853 28.4353L146.348 31.3474C146.125 31.7317 145.932 32.116 145.771 32.4376V38.109C147.592 37.995 149.349 37.3941 150.859 36.369C152.369 35.344 153.575 33.9323 154.353 32.2816C155.063 30.9095 155.487 29.4072 155.599 27.866V26.3304C155.5 24.6994 154.975 23.123 154.076 21.7583C153.177 20.3936 151.937 19.2882 150.478 18.5526C149.024 17.806 147.404 17.4419 145.771 17.4945V23.0019L145.769 23.0003ZM145.194 24.0873L145.769 23.0003V17.4913C143.953 17.5894 142.196 18.1728 140.681 19.1808C139.167 20.1887 137.95 21.5843 137.159 23.2222C136.482 24.5519 136.059 25.9957 135.911 27.4801V29.2087C136.027 30.852 136.565 32.4376 137.473 33.8118C138.382 35.186 139.63 36.3023 141.097 37.0525C142.537 37.8014 144.147 38.1653 145.769 38.109V32.4424C144.01 35.7066 143.467 35.9945 141.963 35.2258C140.677 34.5553 140.516 33.338 141.513 31.4181L142.602 29.2087L143.948 26.5523L145.194 24.0873" fill="white"/>
<path d="M167.789 39.1996L169.262 37.5675C170.764 35.9354 171.853 35.6781 172.973 36.7024C174.287 37.8859 173.938 38.8458 170.955 42.1438C170.312 42.8819 169.741 43.5219 169.23 44.0975L167.403 46.0818V53.0926C170.151 52.8512 172.699 51.5545 174.511 49.4747C178.513 45.0559 178.416 38.8796 174.318 35.1973C173.387 34.3477 172.296 33.6922 171.109 33.2689C169.921 32.8457 168.662 32.6632 167.403 32.7322V39.6145L167.789 39.1996V39.1996ZM167.403 46.0818L167.021 46.4983C163.756 50.0841 163.176 50.3414 161.77 49.092C160.714 48.1272 160.876 46.9147 162.316 45.3148L163.946 43.4592L165.962 41.2514L167.41 39.6177V32.7355C164.645 32.9287 162.068 34.2058 160.24 36.2891C159.297 37.241 158.554 38.3721 158.056 39.6155C157.557 40.859 157.313 42.1897 157.336 43.5292C157.36 44.8687 157.652 46.1898 158.195 47.4148C158.737 48.6397 159.519 49.7436 160.495 50.6614C161.423 51.5137 162.514 52.1688 163.703 52.587C164.891 53.0052 166.153 53.1778 167.41 53.0943V46.0834" fill="white"/>
<path d="M183.289 62.2162L189.658 58.3731C190.014 58.8101 190.248 59.3329 190.338 59.8892C190.428 60.4454 190.37 61.0155 190.171 61.5424C189.688 62.6954 188.664 63.4978 184.864 65.7699C184.289 66.122 183.776 66.413 183.295 66.6977V73.9336C185.187 73.8759 187.031 73.3213 188.642 72.3256C190.635 71.1847 192.224 69.4508 193.186 67.365C193.666 66.3404 193.939 65.2311 193.99 64.1008V63.6827C193.847 61.7068 193.149 59.8115 191.975 58.2155L187.81 51.2368L183.289 53.9173V62.2098V62.2162ZM176.213 66.4725L183.289 62.2162V53.9173L170.746 61.4749L175.133 68.8057C175.803 70.3943 176.946 71.7381 178.406 72.6544C179.866 73.5707 181.573 74.0151 183.295 73.9272V66.6912C180.576 68.2992 179.711 68.5485 178.685 68.3877C178.213 68.2908 177.766 68.0954 177.375 67.8142C176.983 67.5329 176.655 67.1722 176.413 66.7556C176.357 66.6551 176.294 66.5589 176.225 66.4677" fill="white"/>
<path d="M184.12 91.6969L194.91 88.5919L204.768 91.4718L204.098 89.1676L197.439 87.119L202.081 82.1246L199.838 74.2808L192.636 81.9638L182.169 84.9418L184.118 91.6953" fill="white"/>
<path d="M32.3881 106.423C32.3428 96.6998 34.2186 87.0636 37.9081 78.0676C41.5975 69.0716 47.0277 60.8931 53.887 54.0018C60.7462 47.1105 68.8993 41.6421 77.8779 37.9107C86.8566 34.1794 96.4839 32.2585 106.207 32.2585C115.93 32.2585 125.558 34.1794 134.536 37.9107C143.515 41.6421 151.668 47.1105 158.527 54.0018C165.386 60.8931 170.817 69.0716 174.506 78.0676C178.195 87.0636 180.071 96.6998 180.026 106.423H32.3881ZM32.3881 106.423C32.3428 96.6998 34.2186 87.0636 37.9081 78.0676C41.5975 69.0716 47.0277 60.8931 53.887 54.0018C60.7462 47.1105 68.8993 41.6421 77.8779 37.9107C86.8566 34.1794 96.4839 32.2585 106.207 32.2585C115.93 32.2585 125.558 34.1794 134.536 37.9107C143.515 41.6421 151.668 47.1105 158.527 54.0018C165.386 60.8931 170.817 69.0716 174.506 78.0676C178.195 87.0636 180.071 96.6998 180.026 106.423H32.3881ZM32.3881 106.423C32.3428 96.6998 34.2186 87.0636 37.9081 78.0676C41.5975 69.0716 47.0277 60.8931 53.887 54.0018C60.7462 47.1105 68.8993 41.6421 77.8779 37.9107C86.8566 34.1794 96.4839 32.2585 106.207 32.2585C115.93 32.2585 125.558 34.1794 134.536 37.9107C143.515 41.6421 151.668 47.1105 158.527 54.0018C165.386 60.8931 170.817 69.0716 174.506 78.0676C178.195 87.0636 180.071 96.6998 180.026 106.423H32.3881Z" stroke="white" stroke-width="1.44"/>
<path d="M45.9886 93.2341L45.6364 94.6411L44.9932 94.4803L44.387 94.3501L43.8419 94.2552L43.2984 94.1909L42.816 94.1587L42.369 94.1282H41.5392L41.1244 94.1587L40.7706 94.1909L40.4185 94.2552L40.0647 94.3195L39.7142 94.3822L39.3604 94.4803L39.0388 94.543L38.6883 94.6379L38.3361 94.736L37.9808 94.8292L37.5964 94.9257L37.2137 94.9884L36.8327 95.0527L36.4146 95.1171L35.9659 95.183L35.5189 95.2136H34.5284L34.0138 95.183L33.4366 95.1171H33.242C33.3401 94.6347 33.4028 94.1523 33.4977 93.6779H33.5958L34.1087 93.7406L34.5911 93.7728H35.4546L35.8405 93.7406L36.2248 93.6779L36.6075 93.6458L36.9597 93.5814L37.3134 93.4866L37.635 93.4222L37.9872 93.3258L38.3426 93.2614L38.6947 93.165L39.0453 93.0717L39.399 92.9752L39.7817 92.9109L40.1676 92.816L40.5841 92.7839L41.0006 92.7196L41.4492 92.689L41.9316 92.6584L42.414 92.689H42.9269L43.5058 92.7533L44.0799 92.8176L44.6893 92.9463L45.3325 93.0749L46.0046 93.2357L45.9886 93.2341ZM60.7982 93.2357H60.766L60.0907 93.0749L59.4217 92.9784L58.8139 92.8836L58.2383 92.7871L57.6947 92.7549L57.1496 92.7228H56.6672L56.1848 92.7549L55.7362 92.7871L55.286 92.853L54.9049 92.9157L54.4884 92.9801L54.1025 93.0444L53.7503 93.1409L53.3982 93.2357L53.0477 93.3L52.6955 93.3933L52.3739 93.4592L52.0234 93.5557L51.6728 93.6184L51.3175 93.6843L50.9653 93.7149L50.5826 93.7471L50.1983 93.7792H49.3219L48.8395 93.7471L48.3571 93.7149L47.812 93.6184L47.2364 93.5236L46.6607 93.3933L45.9886 93.2325L45.6364 94.6395L46.3423 94.8003L46.9855 94.9611L47.5966 95.056L48.2028 95.1508L48.7463 95.1846L49.2592 95.2152L49.7706 95.2473L50.2192 95.2152H50.7016L51.1197 95.1492L51.5329 95.0865L51.9188 95.0222L52.3015 94.9579L52.6875 94.863L53.0396 94.7971L53.3902 94.7022L53.7423 94.6073L54.0639 94.543L54.4161 94.4465L54.7698 94.3822L55.122 94.3195L55.4741 94.2552L55.8584 94.223L56.2749 94.1925H57.5854L58.1 94.223L58.6129 94.2873L59.187 94.3822L59.7964 94.5125L60.4396 94.6395L60.7917 93.2325L60.7982 93.2357ZM75.5853 93.2325H75.5322L74.8279 93.0717L74.1847 92.9752L73.5415 92.8804L72.9659 92.7839L72.3886 92.7517L71.8756 92.7196H71.3643L70.8819 92.7517L70.4333 92.7839L70.0184 92.8498L69.6003 92.9125L69.1855 92.9768L68.8012 93.0411L68.4474 93.1376L68.0647 93.2325L67.7431 93.2968L67.3893 93.3901L67.0372 93.456L66.6883 93.5525L66.3667 93.6152L66.0113 93.6811L65.627 93.7117L65.2748 93.7438L64.8921 93.776H64.027L63.5784 93.7438L63.096 93.7117L62.5493 93.6152L62.0058 93.5203L61.398 93.3901L60.7548 93.2293L60.4026 94.6363L61.0715 94.7971L61.7147 94.9579L62.3242 95.0527L62.9014 95.1476L63.4433 95.1814L63.9579 95.2119L64.4692 95.2441L64.9162 95.2119H65.3649L65.8103 95.146L66.1962 95.0833L66.6143 95.019L66.9954 94.9547L67.3475 94.8598L67.7013 94.7939L68.0534 94.699L68.4088 94.6041L68.7577 94.5398L69.1115 94.4433L69.462 94.379L69.8126 94.3163L70.1663 94.252L70.5523 94.2198L70.9687 94.1893H72.313L72.8227 94.2198L73.3357 94.2841L73.9114 94.379L74.5546 94.5092L75.1978 94.6363H75.1672L75.5499 93.2293L75.5853 93.2325ZM89.8257 93.2293H89.7951L89.123 93.0685L88.5151 92.972L87.9073 92.8771L87.3317 92.7807L86.8203 92.7485L86.309 92.7163H85.8266L85.3442 92.7485L84.9261 92.7807L84.5112 92.8466L84.0932 92.9093L83.7426 92.9736L83.3583 93.0379L83.0062 93.1344L82.654 93.2293L82.3324 93.2936L81.9787 93.3869L81.6571 93.4528L81.3355 93.5493L80.9849 93.612L80.6633 93.6779L80.3096 93.7085L79.9574 93.7406L79.5731 93.7728H78.7402L78.2947 93.7406L77.8123 93.7085L77.3042 93.612L76.7575 93.5171L76.1835 93.3869L75.5403 93.2261L75.1576 94.6331L75.8281 94.7939L76.4713 94.9241L77.0775 95.0511L77.6548 95.146L78.1677 95.1798L78.6791 95.2103L79.1614 95.2425L79.6439 95.2103H80.0603L80.4768 95.1444L80.8933 95.0817L81.2776 95.0174L81.6297 94.9531L81.9803 94.8582L82.334 94.7923L82.6862 94.6974L83.0078 94.6025L83.3599 94.5382L83.6815 94.4417L84.0031 94.3774L84.3537 94.3147L84.7074 94.2504L85.0612 94.2182L85.4439 94.1877H86.7303L87.2127 94.2182L87.724 94.2825L88.2675 94.3774L88.8464 94.5076L89.4896 94.6347H89.4574L89.8401 93.2277L89.8257 93.2293ZM104.598 93.2277L103.926 93.0669L103.283 92.9704L102.677 92.8755L102.099 92.7791L101.554 92.7469L101.045 92.7147H100.536L100.088 92.7469L99.6376 92.7791L99.2244 92.845L98.8063 92.9077L98.422 92.972L98.0393 93.0363L97.6871 93.1328L97.3366 93.2277L96.9844 93.292L96.6307 93.3853L96.2753 93.4512L95.9537 93.5477L95.6032 93.6104L95.2494 93.6763L94.8667 93.7069L94.4824 93.739L94.0981 93.7712H93.2024L92.757 93.739L92.2425 93.7069L91.6974 93.6104L91.1233 93.5155L90.4801 93.3853L89.8369 93.2245L89.4542 94.6315L90.1585 94.7923L90.8323 94.9531L91.4755 95.0479L92.0543 95.1428L92.6316 95.1766L93.1751 95.2071L93.6575 95.2393L94.1399 95.2071H94.6223L95.0356 95.1412L95.4536 95.0785L95.8701 95.0142L96.2512 94.9498L96.5969 94.8662L96.9828 94.8003L97.335 94.7054L97.6566 94.6106L98.0071 94.5462L98.3609 94.4497L98.7146 94.3854L99.0362 94.3227L99.4205 94.2584L99.7727 94.2262L100.191 94.1957H101.477L101.96 94.2262L102.503 94.2906L103.047 94.3854L103.653 94.5157L104.296 94.6427H104.261L104.616 93.2357L104.598 93.2277ZM119.374 93.2357L118.67 93.0749L118.027 92.9784L117.42 92.8836L116.811 92.7871L116.271 92.7549L115.756 92.7228H115.243L114.795 92.7549L114.348 92.7871L113.901 92.853L113.482 92.9157L113.101 92.9801L112.717 93.0444L112.365 93.1409L112.011 93.2357L111.659 93.3L111.308 93.3933L110.955 93.4592L110.633 93.5557L110.265 93.612L109.913 93.6779L109.561 93.7085L109.176 93.7406L108.758 93.7728H107.927L107.48 93.7406L106.965 93.7085L106.454 93.612L105.878 93.5171L105.27 93.3869L104.6 93.2261L104.245 94.6331L104.95 94.7939L105.594 94.9547L106.237 95.0495L106.814 95.1444L107.358 95.1782L107.871 95.2087L108.353 95.2409L108.835 95.2087H109.284L109.731 95.1428L110.147 95.0801L110.532 95.0158L110.914 94.9514L111.267 94.8566L111.651 94.7907L112.003 94.6958L112.325 94.6009L112.677 94.5366L113.029 94.4401L113.383 94.3758L113.735 94.3131L114.087 94.2487L114.468 94.2166L114.854 94.186H116.168L116.679 94.2166L117.223 94.2809L117.768 94.3758L118.374 94.506L119.048 94.6331H119.016L119.368 93.2261L119.374 93.2357ZM134.702 93.2566L134.636 93.2261L133.899 93.0653L133.196 92.9688L132.524 92.8739L131.915 92.7774L131.309 92.7453L130.762 92.7131H130.218L129.736 92.7453L129.254 92.7774L128.805 92.8434L128.356 92.9061L127.938 92.9704L127.556 93.0347L127.171 93.1312L126.789 93.2261L126.404 93.2904L126.054 93.3837L125.702 93.4512L125.349 93.5477L124.997 93.6104L124.647 93.6763L124.295 93.7069L123.909 93.739L123.526 93.7712H122.659L122.177 93.739L121.694 93.7069L121.183 93.6104L120.609 93.5155L120 93.3853L119.356 93.2245L119.004 94.6315L119.675 94.7923L120.318 94.9531L120.961 95.0479L121.537 95.1428L122.08 95.1766L122.592 95.2071L123.106 95.2393L123.553 95.2071H124.002L124.449 95.1412L124.865 95.0785L125.25 95.0142L125.634 94.9498L126.018 94.855L126.401 94.789L126.753 94.6942L127.104 94.6298L127.459 94.535L127.842 94.4385L128.196 94.3742L128.578 94.3115L128.959 94.2793L129.377 94.215L129.794 94.1844H131.241L131.783 94.215L132.363 94.2793L132.97 94.3742L133.64 94.5044L134.346 94.6315H134.282L134.7 93.255L134.702 93.2566ZM148.432 93.2245L147.758 93.0637L147.115 92.9672L146.509 92.8723L145.966 92.808L145.422 92.7758L144.909 92.7437H144.427L143.98 92.7758L143.565 92.808L143.147 92.8723L142.732 92.9366L142.378 93.0315L141.994 93.0958L141.672 93.1923L141.317 93.2872L140.995 93.3804L140.674 93.4785L140.352 93.5428L140.063 93.6377L139.741 93.702L139.419 93.7664L139.098 93.7985L138.742 93.8307L138.393 93.8628H137.657L137.241 93.7985L136.794 93.7664L136.311 93.6715L135.798 93.575L135.256 93.4142L134.679 93.2534L134.261 94.6298L134.869 94.7907L135.475 94.9514L136.022 95.0801L136.565 95.1766L137.077 95.2409L137.559 95.3036H138.456L138.871 95.273L139.252 95.2409L139.636 95.1766L140.022 95.1106L140.373 95.0463L140.695 94.9514L141.048 94.8566L141.37 94.7601L141.691 94.6958L142.013 94.6009L142.335 94.506L142.656 94.4401L143.008 94.3758L143.361 94.3131L143.713 94.2487L144.065 94.2166L144.483 94.186H144.899L145.348 94.2166L145.797 94.2487L146.308 94.2809L146.85 94.3758L147.461 94.506L148.067 94.6331L148.423 93.2261L148.432 93.2245ZM163.723 93.2261H163.692L162.956 93.0653L162.285 92.9688L161.642 92.8739L161.034 92.7774L160.458 92.7453L159.913 92.7131H159.402L158.892 92.7453L158.444 92.7774L157.997 92.8434L157.546 92.9061L157.162 92.9704L156.745 93.0347L156.393 93.1312L156.011 93.2261L155.658 93.2904L155.305 93.3837L154.954 93.4496L154.599 93.5461L154.25 93.6088L153.864 93.6747L153.48 93.7053L153.097 93.7374L152.716 93.7728H151.82L151.338 93.7406L150.825 93.7085L150.281 93.612L149.702 93.5171L149.096 93.3869L148.424 93.2261L148.069 94.6331L148.775 94.7939L149.448 94.9547L150.056 95.0495L150.664 95.1444L151.241 95.1782L151.751 95.2087L152.264 95.2409L152.746 95.2087H153.229L153.644 95.1428L154.092 95.0801L154.477 95.0158L154.861 94.9514L155.244 94.8566L155.628 94.7907L155.98 94.6958L156.332 94.6315L156.686 94.5366L157.067 94.4401L157.422 94.3758L157.807 94.3131L158.157 94.2487L158.574 94.2166L158.989 94.186H160.37L160.912 94.2166L161.457 94.2809L162.063 94.3758L162.706 94.506L163.377 94.6331H163.346L163.729 93.2261H163.723ZM178.01 93.2261H177.977L177.307 93.0653L176.633 92.9688L176.025 92.8739L175.45 92.7774L174.906 92.7453L174.392 92.7131H173.909L173.427 92.7453L172.978 92.7774L172.56 92.8434L172.145 92.9061L171.763 92.9704L171.409 93.0347L171.024 93.1312L170.703 93.2261L170.352 93.2904L170.031 93.3837L169.682 93.4496L169.36 93.5461L169.039 93.6088L168.688 93.6747L168.366 93.7053L167.984 93.7374L167.63 93.7696H166.826L166.377 93.7374L165.927 93.7053L165.419 93.6088L164.904 93.5139L164.33 93.3837L163.719 93.2228L163.337 94.6298L163.98 94.7907L164.623 94.9209L165.2 95.0479L165.744 95.1122L166.258 95.1782L166.768 95.2087L167.251 95.2409L167.696 95.2087H168.112L168.53 95.1428L168.913 95.0801L169.296 95.0158L169.683 94.9514L170.032 94.8566L170.384 94.7907L170.706 94.6958L171.058 94.6009L171.38 94.5366L171.701 94.4401L172.052 94.3758L172.403 94.3131L172.758 94.2487L173.141 94.2166L173.525 94.186H174.835L175.318 94.2166L175.826 94.2809L176.403 94.3758L177.011 94.506L177.654 94.6331H177.622L178.008 93.2261H178.01ZM178.904 93.4496L178.648 93.3837L178.005 93.2228L177.619 94.6298L178.323 94.7907L178.966 94.9514L179.127 94.982C179.063 94.4723 178.966 93.9593 178.905 93.4464" fill="white"/>
<path d="M36.2232 90.5777L36.0303 92.0249H36.0624L35.6154 91.9606L35.1989 91.9301L34.8178 91.8979H33.8241C33.919 91.3849 34.0492 90.9058 34.1457 90.4266L34.5316 90.4571H34.9159L35.3308 90.4893L35.7473 90.5198L36.2297 90.5858L36.2232 90.5777ZM46.0866 90.5858H46.0561L45.6075 90.5198L45.1588 90.4893L44.7424 90.4571H44.3581L43.9737 90.4266H43.2984L42.9768 90.4571H42.689L42.3995 90.4893H42.1149L41.8576 90.5198L41.602 90.5536L41.3784 90.5842L41.1228 90.6147L40.8993 90.6469L40.6758 90.6774H40.449L40.2271 90.7096L40.002 90.7401H39.7463L39.5228 90.7723H38.1126L37.791 90.7401L37.4373 90.7096L37.0562 90.6774L36.6719 90.6469L36.2232 90.5826L36.0303 92.0298L36.4805 92.0603L36.897 92.1246L37.3134 92.1568L37.6945 92.1889L38.0467 92.2211H38.4004L38.722 92.2517H39.0131L39.2977 92.2211H39.8444L40.1001 92.1889L40.3558 92.1568L40.6114 92.1246L40.8349 92.0941H41.089L41.3157 92.0619L41.5392 92.0314L41.766 91.9992L42.0216 91.9686L42.2452 91.9381H42.4944L42.7517 91.9059H44.6813L45.0624 91.9381L45.4804 91.9686L45.9291 92.033H45.8953L46.0883 90.5858H46.0866ZM55.5979 90.5858L55.1477 90.5198L54.7312 90.4893L54.3147 90.4571H53.961L53.6104 90.4266H52.9367L52.6489 90.4571H52.3594L52.1054 90.4893H51.8208L51.5956 90.5198L51.34 90.5536L51.1181 90.5842L50.8929 90.6147L50.671 90.6469L50.4459 90.6774H50.2128L49.9876 90.7096L49.7641 90.7401H49.5406L49.3187 90.7723H47.9391L47.6175 90.7401L47.2685 90.7096L46.9148 90.6774L46.4967 90.6469L46.0802 90.5826L45.8873 92.0298L46.3375 92.0603L46.7524 92.1246L47.1367 92.1568L47.521 92.1889L47.8747 92.2211H48.1963L48.5179 92.2517H48.8074L49.0936 92.2211H49.6387L49.8944 92.1889L50.1517 92.1568L50.3736 92.1246L50.5971 92.0941L50.8206 92.0619H51.0441L51.2692 92.0314L51.4927 91.9992L51.7162 91.9686L51.9381 91.9381H52.1954L52.4527 91.9059H54.2488L54.601 91.9381L55.0174 91.9686L55.4339 92.033H55.4001L55.5947 90.5858H55.5979ZM65.4533 90.5858L65.0031 90.5198L64.5866 90.4893L64.1685 90.425L63.7874 90.3928H62.1794L61.8916 90.425H61.6022L61.3465 90.4555L61.1214 90.4877L60.8657 90.5182L60.6422 90.552L60.3833 90.5826L60.1614 90.6131L59.9379 90.6453L59.7128 90.6758L59.4571 90.708H59.2336L58.9779 90.7385L58.7223 90.7707H57.5452L57.2236 90.7385L56.8409 90.708L56.4566 90.6758L56.0385 90.6453L55.5931 90.581L55.3985 92.0281L55.8809 92.0925L56.3296 92.123L56.7444 92.1552L57.1287 92.1873L57.4841 92.2195H58.7946L59.0824 92.1873L59.3687 92.1552H59.6243L59.8832 92.123L60.1389 92.0925L60.364 92.0603L60.5843 92.0298L60.84 91.9976L61.0667 91.967L61.2886 91.9365L61.5121 91.9043L61.7356 91.8738H61.9913L62.247 91.8416H63.3726L63.7215 91.8738H64.0737L64.429 91.9043L64.8455 91.9686L65.2604 92.033L65.4549 90.5858H65.4533ZM75.3135 90.5858H75.2814L74.8343 90.5198L74.4179 90.4893L73.9998 90.4571H73.6171L73.236 90.4266H72.5639L72.276 90.4571H71.9882L71.7004 90.4893H71.4109L71.1553 90.5198L70.8996 90.5536L70.6761 90.5842L70.451 90.6147L70.1953 90.6469L69.9734 90.6774H69.7499L69.5231 90.7096L69.2996 90.7401H69.044L68.8205 90.7723H67.3733L67.0517 90.7401L66.7027 90.7096L66.3168 90.6774L65.8987 90.6469L65.4533 90.5826L65.2587 92.0298L65.7058 92.0941L66.1544 92.1246L66.5709 92.1568L66.9536 92.1889L67.3089 92.2211H67.6611L67.9827 92.2517H68.3043L68.5889 92.2211H69.1356L69.4218 92.1889L69.6486 92.1568L69.9042 92.1246L70.1277 92.0941H70.3834L70.6069 92.0619L70.8304 92.0314L71.0524 91.9992L71.3096 91.9686L71.5331 91.9381H71.7904L72.0445 91.9059H73.9017L74.2844 91.9381L74.7025 91.9686L75.1495 92.033H75.1206L75.3135 90.5858V90.5858ZM85.1737 90.5858H85.1384L84.6913 90.5198L84.2411 90.4893L83.8262 90.4571H83.4451L83.056 90.4266H82.3871L82.0655 90.4571H81.7793L81.4898 90.4893H81.2342L80.9463 90.5198L80.6923 90.5536L80.4655 90.5842L80.2099 90.6147L79.988 90.6469L79.7645 90.6774H79.5393L79.3126 90.7096L79.0907 90.7401H78.835L78.6115 90.7723H77.2045L76.8829 90.7401L76.5308 90.7096L76.1497 90.6774L75.767 90.6469L75.3167 90.5826L75.1238 92.0298L75.5724 92.0603L75.9889 92.1246L76.4037 92.1568L76.7881 92.1889L77.1386 92.2211H77.494L77.8156 92.2517H78.1034L78.3912 92.2211H78.9347L79.2226 92.1889L79.4477 92.1568L79.7017 92.1246L79.9269 92.0941H80.1841L80.406 92.0619L80.6312 92.0314L80.8547 91.9992L81.1103 91.9686L81.3355 91.9381H81.5911L81.8468 91.9059H83.7764L84.1591 91.9381L84.5756 91.9686L85.0226 92.033H84.992L85.185 90.5858H85.1737ZM94.6914 90.5858L94.2412 90.5198L93.8263 90.4893L93.442 90.4571H93.0577L92.7072 90.4266H92.064L91.7762 90.4571H91.4851L91.1989 90.4893H90.9432L90.6875 90.5198L90.464 90.5536L90.2084 90.5842L89.9848 90.6147L89.7581 90.6469L89.533 90.6774H89.3095L89.0892 90.7096L88.8946 90.7401H88.639L88.4138 90.7723H87.0358L86.7142 90.7401L86.3588 90.7096L86.0067 90.6774L85.5886 90.6469L85.1753 90.5826L84.9824 92.0298L85.4278 92.0603L85.8443 92.1246L86.2286 92.1568L86.6129 92.1889L86.965 92.2211H87.2866L87.6082 92.2517H87.9298L88.2177 92.2211H88.7322L88.9879 92.1889L89.2436 92.1568L89.4992 92.1246L89.7228 92.0941L89.9479 92.0619H90.1714L90.3981 92.0314L90.6216 91.9992L90.8451 91.9686L91.067 91.9381H91.3227L91.5462 91.9059H93.3407L93.6897 91.9381L94.1077 91.9686L94.5242 92.033H94.4937L94.6866 90.5858H94.6914ZM104.544 90.5858H104.513L104.063 90.5198L103.646 90.4893L103.262 90.4571H102.875L102.519 90.4266H101.85L101.529 90.4571H101.241L100.985 90.4893H100.704L100.448 90.5198L100.223 90.5536L99.9673 90.5842L99.7389 90.6083L99.5154 90.6405L99.2581 90.671H99.0363L98.8111 90.7032L98.5892 90.7337H98.3336L98.0779 90.7659H96.6307L96.3091 90.7337L95.9232 90.7032L95.5389 90.671L95.124 90.6405L94.677 90.5761L94.484 92.0233L94.9664 92.0876L95.3845 92.1182L95.7994 92.1503L96.2174 92.1825L96.568 92.2147H96.9233L97.2739 92.2452H97.5617L97.8833 92.2147H98.4268L98.7179 92.1825L98.943 92.1503L99.1987 92.1182L99.4543 92.0876H99.6778L99.9013 92.0555L100.125 92.0249L100.381 91.9928L100.604 91.9622L100.829 91.9317H101.085L101.341 91.8995H103.166L103.548 91.9317L103.933 91.9622L104.38 92.0265H104.349L104.539 90.5793L104.544 90.5858ZM114.368 90.5793H114.336L113.889 90.5118L113.439 90.4813L113.058 90.4491H112.674L112.289 90.4185H111.646L111.325 90.4491H111.038L110.749 90.4813H110.493L110.204 90.5118L109.98 90.5456L109.725 90.5761L109.501 90.6067L109.245 90.6388L109.019 90.6694H108.798L108.573 90.7015L108.35 90.7321H108.1L107.877 90.7643H106.467L106.145 90.7321L105.791 90.7015L105.41 90.6694L104.994 90.6388L104.544 90.5745L104.354 92.0217L104.799 92.086L105.248 92.1166L105.664 92.1487L106.05 92.1809L106.404 92.2131H106.755L107.076 92.2436H107.398L107.653 92.2131H108.199L108.486 92.1809L108.742 92.1487L108.964 92.1166L109.221 92.086H109.443L109.67 92.0539L109.893 92.0233L110.149 91.9912L110.373 91.9606L110.596 91.9301H110.855L111.109 91.8979H112.966L113.349 91.9301L113.767 91.9606L114.184 92.0249L114.376 90.5777L114.368 90.5793ZM124.589 90.5777H124.555L124.044 90.5118L123.561 90.4813L123.146 90.4491H122.728L122.344 90.4185H121.608L121.286 90.4491H120.964L120.673 90.4813H120.386L120.098 90.5118L119.842 90.5456L119.586 90.5761L119.329 90.6067L119.107 90.6388L118.852 90.6694H118.626L118.405 90.7015L118.181 90.7321H117.925L117.67 90.7643H116.263L115.941 90.7321L115.587 90.7015L115.206 90.6694L114.788 90.6388L114.373 90.5745L114.18 92.0217L114.627 92.086L115.045 92.1166L115.46 92.1487L115.846 92.1809L116.198 92.2131H116.549L116.87 92.2436H117.155L117.477 92.2131H118.02L118.277 92.1809L118.533 92.1487L118.789 92.1166L119.035 92.0812H119.257L119.514 92.0491L119.736 92.0185L119.992 91.9863L120.215 91.9558L120.471 91.9252H120.759L121.016 91.8931H123.032L123.45 91.9252L123.896 91.9558L124.378 92.0201H124.348L124.571 90.5729L124.589 90.5777ZM133.727 90.5729H133.695L133.277 90.507L132.86 90.4764L132.444 90.4443H132.093L131.741 90.4137H131.098L130.776 90.4443H130.521L130.235 90.4764H129.979L129.723 90.507L129.5 90.5407L129.275 90.5713L129.051 90.6019L128.826 90.634L128.633 90.6646H128.413L128.188 90.6967L127.995 90.7273H127.773L127.548 90.7594H126.3L125.978 90.7273L125.657 90.6967L125.304 90.6646L124.951 90.634L124.57 90.5697L124.346 92.0169L124.763 92.0474L125.147 92.1118L125.53 92.1439L125.882 92.1761L126.203 92.2082H126.525L126.816 92.2388H127.101L127.392 92.2082H127.874L128.13 92.1761L128.355 92.1439L128.578 92.1118L128.803 92.0812L129.027 92.0491H129.252L129.474 92.0185L129.667 91.9863L129.89 91.9558L130.114 91.9252H130.37L130.595 91.8931H132.381L132.733 91.9252L133.118 91.9558L133.566 92.0201H133.534L133.727 90.5729V90.5729ZM143.939 90.5729H143.907L143.425 90.507L142.976 90.4764L142.526 90.4443H142.145L141.759 90.4137H141.064L140.743 90.4443H140.421L140.133 90.4764H139.876L139.588 90.507L139.333 90.5407L139.077 90.5713L138.852 90.6019L138.596 90.634L138.371 90.6646H138.117L137.892 90.6967L137.667 90.7273H137.411L137.154 90.7594H135.682L135.361 90.7273L134.975 90.6967L134.591 90.6646L134.176 90.634L133.729 90.5697L133.536 92.0169L134.018 92.0812L134.435 92.1118L134.851 92.1439L135.269 92.1761L135.621 92.2082H135.973L136.324 92.2388H136.646L136.938 92.2082H137.512L137.768 92.1761L138.024 92.1439L138.279 92.1118L138.535 92.0812H138.755L139.014 92.0491L139.239 92.0185L139.493 91.9863L139.749 91.9558L139.973 91.9252H140.23L140.518 91.8931H142.471L142.854 91.9252L143.304 91.9558L143.75 92.0201L143.687 91.9879L143.943 90.581L143.939 90.5729ZM153.449 90.581H153.419L152.968 90.515L152.523 90.4845H152.139L151.754 90.4523H150.41L150.121 90.4845L149.834 90.515H149.587L149.331 90.5488L149.075 90.5793L148.852 90.6099L148.628 90.6421L148.402 90.6726L148.178 90.7048L147.953 90.7353L147.733 90.7675L147.508 90.798H147.282L147.059 90.8302H146.035L145.747 90.798H145.425L145.104 90.7337L144.751 90.7032L144.369 90.6388L143.952 90.5745L143.697 91.9815L144.145 92.078L144.56 92.1423L144.944 92.1745L145.295 92.2066L145.647 92.2372L145.969 92.2693H147.154L147.409 92.2372H147.665L147.89 92.2066L148.146 92.1745L148.369 92.1423L148.593 92.1101L148.818 92.0796L149.04 92.0474L149.267 92.0169L149.487 91.9847L149.711 91.9542H149.968L150.223 91.9236L150.479 91.8915H151.698L152.047 91.9236H152.433L152.849 91.9542L153.266 92.0185L153.457 90.5713L153.449 90.581ZM163.317 90.5713H163.284L162.801 90.5054L162.383 90.4748L161.967 90.4427H161.582L161.2 90.4121H160.521L160.235 90.4427H159.913L159.659 90.4748H159.37L159.114 90.5054L158.858 90.5391L158.635 90.5697L158.379 90.6002L158.156 90.6324L157.932 90.663H157.709L157.484 90.6951L157.26 90.7257H157.004L156.779 90.7578H155.375L155.023 90.7257L154.671 90.6951L154.285 90.663L153.87 90.6324L153.454 90.5681L153.263 92.0153L153.708 92.0796L154.126 92.1101L154.541 92.1423L154.924 92.1745L155.277 92.2066H155.63L155.951 92.2372H156.273L156.559 92.2066H157.106L157.361 92.1745L157.617 92.1423L157.873 92.1101L158.096 92.0796H158.353L158.575 92.0474L158.801 92.0169L159.026 91.9847L159.248 91.9542L159.502 91.9236H159.76L160.016 91.8915H161.872L162.29 91.9236L162.673 91.9542L163.123 92.0185H163.094L163.319 90.5713H163.317ZM172.824 90.5713H172.795L172.378 90.5054L171.928 90.4748L171.547 90.4427H171.193L170.84 90.4121H170.196L169.875 90.4427H169.589L169.333 90.4748H169.077L168.822 90.5054L168.596 90.5391L168.342 90.5697L168.116 90.6002L167.892 90.6324L167.669 90.663H167.447L167.254 90.6951L167.029 90.7257H166.773L166.548 90.7578H165.173L164.851 90.7257L164.499 90.6951L164.117 90.663L163.732 90.6324L163.317 90.5681L163.092 92.0153L163.542 92.0458L163.957 92.1101L164.374 92.1423L164.758 92.1745L165.112 92.2066H165.433L165.755 92.2372H166.077L166.365 92.2066H166.91L167.132 92.1745L167.387 92.1423L167.644 92.1101L167.868 92.0796L168.091 92.0474H168.317L168.54 92.0169L168.767 91.9847L168.987 91.9542L169.211 91.9236H169.436L169.693 91.8915H171.484L171.836 91.9236L172.221 91.9542L172.636 92.0185L172.827 90.5713H172.824ZM178.304 90.5407L178.109 90.5713L177.887 90.6019L177.664 90.634L177.44 90.6646H177.215L176.961 90.6967L176.736 90.7273H176.509L176.254 90.7594H174.782L174.461 90.7273L174.076 90.6967L173.695 90.6646L173.277 90.634L172.825 90.5697L172.634 92.0169L173.116 92.0812L173.531 92.1118L173.948 92.1439L174.366 92.1761L174.718 92.2082H175.069L175.422 92.2388H175.744L176.033 92.2082H176.609L176.866 92.1761L177.124 92.1439L177.379 92.1118L177.601 92.0812H177.828L178.084 92.0491L178.307 92.0185L178.532 91.9863H178.625C178.532 91.5039 178.434 91.0215 178.304 90.5472" fill="white"/>
<path d="M56.3296 102.294L55.6591 103.58L55.6896 103.611L54.5641 103.098L53.5076 102.713L52.5139 102.392L51.5861 102.2L50.7226 102.04L49.9539 101.975H49.1853L48.481 102.006L47.8057 102.101L47.1625 102.261L46.5546 102.422L45.9774 102.646L45.4001 102.869L44.826 103.157L44.2504 103.413L43.6731 103.701L43.0975 103.988L42.5218 104.278L41.9124 104.566L41.3045 104.821L40.6613 105.047L39.9876 105.239L39.2817 105.4L38.5468 105.497L37.7428 105.527L36.9388 105.497L36.0737 105.4L35.1459 105.207L34.2181 104.952L33.1938 104.6L32.3898 104.247C32.4236 103.734 32.4236 103.221 32.4558 102.709L32.7436 102.837L33.7373 103.255L34.6346 103.577L35.4981 103.833L36.3021 103.993L37.0402 104.058L37.7428 104.09L38.4134 104.058L39.0212 103.963L39.629 103.834L40.2079 103.673L40.7836 103.482L41.3271 103.226L41.9027 102.971L42.4478 102.713L43.0203 102.427L43.5992 102.139L44.2054 101.85L44.8148 101.562L45.458 101.306L46.1012 101.051L46.8055 100.859L47.5419 100.699L48.309 100.571L49.1403 100.539H50.0086L50.9043 100.636L51.8691 100.763L52.895 101.02L53.9482 101.342L55.1027 101.758L56.2862 102.302H56.3184L56.3296 102.294ZM80.1038 102.302L78.9782 101.79L77.9218 101.342L76.928 101.02L75.9632 100.763L75.066 100.636L74.2025 100.539H73.3985L72.6299 100.571L71.8934 100.699L71.1891 100.859L70.517 101.083L69.8738 101.306L69.2643 101.562L68.6887 101.85L68.1114 102.139L67.5357 102.427L66.9922 102.713L66.4487 103.003L65.9052 103.226L65.328 103.482L64.7845 103.673L64.2072 103.834L63.601 103.963L62.9578 104.058L62.3146 104.09L61.6103 104.058L60.8738 103.993L60.0698 103.833L59.2369 103.577L58.3428 103.255L57.3491 102.837L56.2926 102.294L55.6221 103.58L56.7477 104.156L57.8009 104.604L58.7963 104.956L59.7611 105.212L60.6567 105.405L61.5202 105.502L62.3242 105.532L63.1282 105.502L63.8663 105.405L64.569 105.244L65.2411 105.051L65.8843 104.826L66.4921 104.571L67.0694 104.283L67.6467 103.993L68.2432 103.694L68.7868 103.406L69.3319 103.151L69.9075 102.863L70.451 102.639L71.0267 102.416L71.604 102.255L72.1796 102.094L72.8228 101.999L73.466 101.969H74.1719L74.9068 102.033L75.7108 102.194L76.5421 102.385L77.4715 102.707L78.4363 103.091L79.4928 103.604L80.136 102.292L80.1038 102.302ZM104.783 102.292L103.63 101.781L102.576 101.332L101.55 101.01L100.585 100.753L99.6538 100.626L98.7919 100.53H97.9606L97.1919 100.562L96.4233 100.689L95.719 100.85L95.0469 101.041L94.3747 101.297L93.7685 101.552L93.1591 101.84L92.5529 102.13L91.974 102.417L91.3999 102.704L90.8259 102.961L90.2454 103.217L89.6714 103.472L89.0973 103.664L88.4863 103.824L87.8431 103.953L87.1709 104.048L86.5004 104.08L85.7655 104.048L84.9615 103.953L84.1302 103.824L83.2362 103.569L82.2714 103.247L81.2471 102.829L80.1215 102.286L79.4783 103.598L80.6312 104.141L81.7568 104.59L82.8149 104.942L83.8086 105.23L84.7348 105.391L85.6642 105.487L86.4956 105.518L87.2996 105.487L88.0666 105.391L88.8014 105.23L89.5073 105.037L90.1795 104.812L90.8227 104.556L91.4289 104.268L92.0351 103.979L92.6124 103.691L93.1897 103.403L93.7653 103.147L94.341 102.86L94.9182 102.636L95.4923 102.413L96.0696 102.252L96.7128 102.091L97.356 101.996L97.9992 101.966H98.7356L99.4721 102.03L100.276 102.191L101.141 102.382L102.071 102.704L103.064 103.088L104.121 103.601V103.57L104.793 102.284L104.783 102.292ZM129.411 102.284L129.347 102.252L128.194 101.835L127.109 101.482L126.051 101.226L125.086 101.065L124.156 100.97L123.291 100.906L122.433 100.949L121.629 101.044L120.892 101.173L120.156 101.334L119.487 101.557L118.844 101.782L118.2 102.004L117.593 102.294L117.015 102.549L116.44 102.805L115.861 103.061L115.288 103.316L114.713 103.54L114.135 103.733L113.556 103.926L112.95 104.053L112.344 104.149L111.701 104.214H110.995L110.26 104.149L109.491 104.053L108.66 103.861L107.764 103.606L106.869 103.254L105.841 102.836L104.754 102.292L104.082 103.578L105.235 104.154L106.324 104.603L107.348 104.985L108.313 105.273L109.241 105.466L110.106 105.595L110.969 105.658H111.738L112.506 105.595L113.243 105.466L113.913 105.305L114.586 105.112L115.229 104.887L115.84 104.659L116.446 104.403L117.022 104.116L117.599 103.86L118.176 103.604L118.749 103.348L119.326 103.123L119.937 102.903L120.543 102.742L121.186 102.581L121.83 102.487L122.532 102.39H123.27L124.039 102.422L124.843 102.517L125.739 102.678L126.668 102.903L127.692 103.225L128.779 103.609L128.717 103.578L129.389 102.292L129.411 102.284ZM154.871 102.323L154.838 102.292L153.589 101.749L152.404 101.332L151.278 101.01L150.222 100.753L149.23 100.592L148.299 100.528H147.405L146.538 100.56L145.734 100.687L144.965 100.848L144.229 101.039L143.558 101.295L142.886 101.551L142.243 101.839L141.6 102.128L140.992 102.416L140.416 102.702L139.839 102.959L139.233 103.215L138.654 103.471L138.077 103.662L137.469 103.823L136.826 103.951L136.183 104.046L135.51 104.079L134.774 104.046L134.037 103.982L133.206 103.821L132.344 103.566L131.413 103.244L130.42 102.826L129.363 102.282L128.691 103.569L129.817 104.144L130.904 104.593L131.928 104.945L132.893 105.233L133.822 105.394L134.686 105.49L135.517 105.521L136.321 105.49L137.089 105.394L137.795 105.233L138.498 105.04L139.169 104.815L139.812 104.559L140.421 104.271L141.029 104.016L141.635 103.694L142.243 103.406L142.82 103.151L143.428 102.897L144.036 102.639L144.679 102.416L145.322 102.255L145.996 102.094L146.7 101.999L147.434 101.969H148.238L149.069 102.033L149.965 102.194L150.929 102.417L151.955 102.704L153.044 103.088L154.226 103.601L154.163 103.57L154.867 102.321L154.871 102.323ZM177.788 102.29L176.662 101.779L175.643 101.33L174.615 101.009L173.691 100.752L172.792 100.625L171.925 100.528H171.121L170.354 100.56L169.614 100.687L168.944 100.848L168.273 101.072L167.63 101.295L167.051 101.551L166.477 101.839L165.903 102.128L165.356 102.416L164.843 102.702L164.3 102.992L163.787 103.247L163.245 103.471L162.732 103.662L162.185 103.823L161.611 103.951L161.034 104.046L160.428 104.079L159.785 104.046L159.109 103.982L158.373 103.821L157.606 103.566L156.739 103.244L155.843 102.826L154.851 102.315L154.147 103.564L155.203 104.107L156.196 104.59L157.123 104.942L158.019 105.198L158.85 105.391L159.682 105.487L160.45 105.518L161.187 105.487L161.893 105.391L162.536 105.23L163.179 105.037L163.789 104.812L164.395 104.556L164.941 104.268L165.516 103.979L166.027 103.691L166.572 103.403L167.116 103.114L167.659 102.858L168.17 102.635L168.751 102.411L169.291 102.25L169.902 102.089L170.508 101.995L171.152 101.964H171.856L172.594 102.028L173.363 102.189L174.226 102.38L175.123 102.702L176.088 103.086L177.143 103.599L177.786 102.287L177.788 102.29ZM179.962 103.252H179.93L178.907 102.834L177.781 102.29L177.138 103.603L178.323 104.146L179.413 104.595L180.02 104.788C179.989 104.275 179.989 103.762 179.955 103.25" fill="white"/>
<path d="M46.2459 97.2348L45.7346 98.5791L44.8695 98.2913L44.0655 98.0356L43.2969 97.8427L42.5926 97.7156L41.9204 97.6513L41.3126 97.587H40.7369L40.1613 97.6175L39.6467 97.6835L39.1643 97.7478L38.6514 97.841L38.2028 97.9713L37.7204 98.1321L37.2701 98.2607L36.8263 98.4521L36.3439 98.6129L35.8953 98.7737L35.4129 98.9683L34.9305 99.1291L34.4159 99.2898L33.8724 99.4201L33.3289 99.515L32.7501 99.6115H32.6857C32.75 99.1291 32.7822 98.6467 32.8465 98.1385L33.07 98.1064L33.5524 98.0099L34.0348 97.8812L34.4819 97.7542L34.9305 97.5934L35.4129 97.4326L35.8583 97.2718L36.3085 97.0789L36.7909 96.9181L37.3055 96.7573L37.7879 96.5965L38.3314 96.4694L38.8733 96.3376L39.4522 96.2443L40.0584 96.1784L40.7016 96.1478H41.3737L42.0764 96.2105L42.8145 96.307L43.5831 96.4341L44.4144 96.6592L45.3101 96.9148L46.2073 97.2364H46.2379L46.2459 97.2348ZM65.9262 97.2364L64.9951 96.9148L64.1011 96.6592L63.2681 96.4341L62.4641 96.307L61.6955 96.2105L60.9912 96.1478H60.3271L59.6839 96.1784L59.0761 96.2443L58.5004 96.3376L57.9248 96.4341L57.4102 96.5948L56.9021 96.7557L56.3843 96.9165L55.9019 97.0773L55.4549 97.2702L55.0079 97.431L54.5255 97.5918L54.0753 97.7526L53.6282 97.8796L53.1458 98.0083L52.6634 98.1048L52.181 98.1996L51.6697 98.2318L51.1262 98.2639H50.5666L49.9604 98.1996L49.3172 98.1048L48.6113 97.9761L47.8764 97.7832L47.0724 97.5259L46.2411 97.238L45.7298 98.5823L46.6254 98.9039L47.4889 99.1596L48.2929 99.3847L49.0615 99.5455L49.7964 99.6404L50.4991 99.7031H51.1423L51.7855 99.6709L52.3917 99.6082L52.969 99.5118L53.5125 99.4169L54.0254 99.2866L54.5384 99.1258L55.0207 98.965L55.5032 98.7705L55.9518 98.6097L56.4342 98.4489L56.8796 98.2575L57.3298 98.1289L57.8122 97.9681L58.2946 97.8378L58.777 97.7446L59.29 97.6802L59.8029 97.6143L60.3802 97.5838H60.9542L61.5974 97.6481L62.268 97.7124L62.9723 97.8394L63.7763 98.0324L64.5803 98.2881L65.4775 98.5759H65.4454L65.9583 97.2316L65.9262 97.2364ZM85.005 97.2316L84.1077 96.91L83.2764 96.6543L82.4724 96.4292L81.7038 96.3022L81.0011 96.2057L80.3289 96.143H79.6858L79.0426 96.1736L78.4669 96.2395L77.9218 96.3328L77.3783 96.4646L76.8959 96.5916L76.3829 96.7524L75.9359 96.9132L75.4535 97.074L75.0033 97.267L74.5868 97.4278L74.1398 97.5886L73.6895 97.7494L73.2731 97.8764L72.826 98.0051L72.3437 98.1015L71.8613 98.1964L71.3483 98.2286L70.837 98.2607H70.2597L69.6535 98.1964L69.0103 98.1015L68.3398 97.9729L67.6049 97.78L66.8009 97.5227L65.9358 97.2348L65.4229 98.5791L66.3507 98.9007L67.182 99.1564L68.0149 99.3815L68.7836 99.5423L69.4879 99.6372L70.1922 99.6999H70.8354L71.4448 99.6677L72.051 99.605L72.5961 99.5085L73.1396 99.4137L73.6542 99.2529L74.1366 99.1242L74.619 98.9313L75.1014 98.7705L75.55 98.6097L75.9649 98.4167L76.4135 98.2559L76.8637 98.1273L77.2786 97.9665L77.7256 97.8362L78.208 97.743L78.6566 97.6786L79.1664 97.6127L79.6793 97.5822H80.255L80.8306 97.6465L81.4738 97.7108L82.1476 97.8378L82.8824 98.0308L83.6495 98.2865L84.4824 98.5743L84.9953 97.23L85.005 97.2316ZM104.714 97.23L103.786 96.9084L102.92 96.6527L102.116 96.4276L101.347 96.3006L100.611 96.2041L99.9384 96.1414H99.2647L98.6215 96.172L98.0426 96.2379L97.4669 96.3311L96.925 96.463L96.4089 96.59L95.8975 96.7508L95.4151 96.9116L94.9327 97.0724L94.4503 97.2654L94.0033 97.4262L93.5563 97.587L93.0739 97.7478L92.6253 97.8748L92.1429 98.0035L91.6605 98.0999L91.1475 98.1643L90.604 98.227L90.0605 98.2591H89.4511L88.8449 98.1948L88.1711 98.0999L87.4363 97.9713L86.6677 97.7783L85.8347 97.5211L84.9728 97.2332L84.4599 98.5775L85.4247 98.8991L86.2914 99.1548L87.1533 99.3799L87.9219 99.5407L88.6905 99.6356L89.3964 99.6983H90.075L90.7455 99.6661L91.3517 99.6034L91.9306 99.5069L92.4741 99.4121L93.0176 99.2818L93.5306 99.121L94.013 98.9602L94.4954 98.7656L94.9778 98.6048L95.4248 98.444L95.9072 98.2527L96.3558 98.1241L96.8028 97.9633L97.2852 97.833L97.7307 97.7397L98.2436 97.6754L98.7566 97.6095L99.3017 97.579H99.8773L100.484 97.6433L101.127 97.7076L101.799 97.8346L102.569 98.0276L103.335 98.2832L104.2 98.5711L104.713 97.2268L104.714 97.23ZM124.37 97.2268L123.439 96.9052L122.576 96.6495L121.744 96.4244L120.976 96.2974L120.238 96.2009L119.535 96.1382H118.861L118.218 96.1687L117.61 96.2347L117.033 96.3279L116.489 96.4598L115.964 96.5948L115.451 96.7557L114.968 96.9165L114.486 97.0773L114.004 97.2702L113.553 97.431L113.105 97.5918L112.622 97.7526L112.174 97.8796L111.691 98.0083L111.209 98.1048L110.726 98.1996L110.183 98.2318L109.639 98.2639H109.064L108.421 98.1996L107.777 98.1048L107.108 97.9761L106.338 97.7832L105.534 97.5259L104.669 97.238L104.156 98.5823L105.086 98.9039L105.951 99.1596L106.782 99.3847L107.551 99.5455L108.289 99.6404L108.99 99.7031H109.693L110.3 99.6709L110.908 99.6082L111.484 99.5118L112.063 99.4169L112.574 99.2866L113.087 99.1258L113.569 98.965L114.052 98.7705L114.534 98.6097L114.981 98.4489L115.464 98.2575L115.912 98.1289L116.361 97.9681L116.843 97.8378L117.326 97.7446L117.808 97.6802L118.352 97.6143L118.895 97.5838H119.471L120.077 97.6481L120.751 97.7124L121.455 97.8394L122.191 98.0324L123.023 98.2881L123.889 98.5759H123.843L124.357 97.2316L124.37 97.2268ZM144.779 97.2316L144.747 97.2011L143.721 96.8795L142.795 96.6238L141.901 96.4308L141.068 96.3038L140.264 96.2073L139.526 96.1446H138.797L138.127 96.1752L137.483 96.2411L136.877 96.3344L136.298 96.4308L135.723 96.5916L135.211 96.7524L134.7 96.9132L134.187 97.074L133.705 97.2348L133.222 97.4278L132.775 97.5886L132.293 97.7494L131.81 97.8764L131.362 98.0051L130.852 98.1015L130.37 98.1964L129.858 98.2286L129.283 98.2607H128.707L128.098 98.1964L127.454 98.1015L126.748 97.9729L126.014 97.78L125.21 97.5227L124.346 97.2348L123.832 98.5791L124.763 98.9007L125.626 99.1564L126.43 99.3815L127.199 99.5423L127.934 99.6372L128.638 99.6999H129.312L129.955 99.6677L130.529 99.605L131.138 99.5085L131.683 99.4137L132.193 99.2834L132.708 99.1226L133.217 98.9618L133.7 98.7673L134.182 98.6065L134.665 98.4456L135.147 98.2849L135.629 98.1241L136.112 97.9633L136.625 97.833L137.135 97.7397L137.68 97.6754L138.223 97.6095L138.829 97.579H139.473L140.145 97.6433L140.847 97.7076L141.616 97.8684L142.447 98.0292L143.345 98.2849L144.274 98.5727H144.242L144.787 97.2284L144.779 97.2316ZM163.096 97.2284H163.129L162.234 96.9068L161.401 96.6511L160.597 96.426L159.827 96.299L159.124 96.2025L158.453 96.1398H157.771L157.162 96.1703L156.586 96.2363L156.043 96.3295L155.53 96.4614L155.017 96.5884L154.535 96.7492L154.052 96.91L153.607 97.0708L153.189 97.2638L152.738 97.4246L152.327 97.5854L151.909 97.7462L151.492 97.8732L151.076 98.0018L150.627 98.0983L150.18 98.1932L149.732 98.2254L149.222 98.2575H148.709L148.164 98.1932L147.558 98.0983L146.95 97.9697L146.278 97.7767L145.541 97.5195L144.774 97.2316L144.229 98.5759L145.062 98.8975L145.866 99.1532L146.602 99.3783L147.308 99.5391L147.98 99.634L148.649 99.6967H149.26L149.836 99.6645L150.38 99.6018L150.923 99.5053L151.436 99.4105L151.918 99.2496L152.401 99.121L152.853 98.9281L153.298 98.7673L153.715 98.6065L154.165 98.4135L154.581 98.2527L154.998 98.1241L155.446 97.9633L155.861 97.833L156.344 97.7397L156.792 97.6754L157.305 97.6095L157.818 97.579H158.392L158.971 97.6433L159.614 97.7076L160.288 97.8346L160.991 98.0276L161.795 98.2832L162.626 98.5711L163.108 97.2268L163.096 97.2284ZM179.341 96.2025H179.211L178.474 96.1398H177.77L177.127 96.1703L176.484 96.2363L175.876 96.3295L175.299 96.426L174.755 96.5868L174.242 96.7476L173.731 96.9084L173.248 97.0692L172.737 97.23L172.288 97.423L171.806 97.5838L171.324 97.7446L170.841 97.8716L170.359 98.0002L169.846 98.0967L169.333 98.161L168.789 98.2237L168.244 98.2559H167.638L166.995 98.1916L166.326 98.0967L165.588 97.9681L164.819 97.7751L163.988 97.5178L163.091 97.23L162.608 98.5743L163.539 98.8959L164.433 99.1516L165.299 99.3767L166.102 99.5375L166.841 99.6323L167.575 99.6951H168.246L168.889 99.6629L169.532 99.6002L170.111 99.5359L170.687 99.4072L171.23 99.277L171.742 99.1162L172.255 98.9554L172.737 98.7608L173.219 98.6L173.702 98.4392L174.184 98.2784L174.667 98.1176L175.149 97.9568L175.664 97.8266L176.146 97.7333L176.688 97.669L177.233 97.6031L177.81 97.5725H178.418L179.061 97.6368L179.544 97.669C179.483 97.1866 179.418 96.7042 179.356 96.1945" fill="white"/>
<path d="M35.5865 84.9434L39.4264 86.8312L39.3621 81.9654H46.5659V85.4548H49.5037L55.9357 80.2352C55.9357 80.2352 61.6649 84.0446 61.6344 84.0446L73.6686 84.141L77.8301 78.4423L81.7359 83.4367C81.8324 83.5316 102.289 83.4367 102.289 83.4367V86.9566L106.546 83.8838L110.131 86.828H114.467V84.6861L120.648 79.0823L127.787 84.6861V87.3104H128.969L130.157 83.5332H136.652L137.839 87.3104H139.022L138.988 82.3256H145.742V78.8282H159.825V85.0994L162.452 85.1316L162.42 83.337L168.952 82.4414L171.608 84.7778L171.576 87.4021L177.564 87.4342C173.659 72.7579 165.319 59.6445 153.684 49.8844L145.774 47.9644C145.774 47.9644 138.538 47.6428 134.571 47.6428C132.169 48.3793 127.527 49.3392 126.025 50.2992C124.116 51.5451 121.925 52.2935 119.652 52.4764C115.012 52.6694 108.707 53.5007 106.337 55.9031C105.023 57.3422 98.5555 57.2795 96.9572 57.9822C95.9634 58.4308 93.5627 58.2379 91.2279 58.6865C88.9847 59.0724 89.4591 60.1594 85.1432 58.8473C81.7841 57.9822 79.1261 57.9822 77.3364 56.929C75.0306 56.6717 70.3545 54.5266 65.426 54.398C60.6246 53.9156 59.0552 53.7902 54.1283 56.1668L50.6293 57.8584C43.7495 65.7164 38.621 74.9487 35.5849 84.9418" fill="white" fill-opacity="0.5"/>
<path d="M81.6844 94.4838C81.7825 93.9387 93.0497 73.387 93.0497 73.387L93.1446 95.6673C93.1446 95.6673 82.7698 94.4838 81.6844 94.4838Z" fill="white"/>
<path d="M57.6755 96.0257C57.7704 95.4822 72.432 67.0239 72.432 67.0239L71.1456 98.0759C71.1456 98.0759 57.1561 96.0562 57.6707 96.0257" fill="white"/>
<path d="M1.78162 106.423C1.78162 78.7283 12.7833 52.1679 32.3664 32.5848C51.9495 13.0017 78.5099 2 106.205 2C133.899 2 160.46 13.0017 180.043 32.5848C199.626 52.1679 210.628 78.7283 210.628 106.423H1.78162Z" stroke="white" stroke-width="2.232"/>
</svg>
